<svg version="1.0" xmlns="http://www.w3.org/2000/svg"
 width="360.000000pt" height="360.000000pt" viewBox="0 0 360.000000 360.000000"
 preserveAspectRatio="xMidYMid meet">


<g transform="translate(0.000000,360.000000) scale(0.100000,-0.100000)"
fill="orange" stroke="none">
<path d="M807 2514 c-1 -1 -1 -324 1 -717 l2 -714 277 -2 c152 -1 343 1 424 5
l149 7 0 158 0 159 -250 0 -250 0 0 125 0 125 355 0 354 0 116 155 c63 86 115
158 115 160 0 3 -211 5 -470 5 l-470 0 0 105 0 105 250 0 250 0 -2 163 -3 162
-423 1 c-232 0 -423 -1 -425 -2z" stroke="#FFF" stroke-width="18"/>
<path  fill="orange" d="M1730 2348 c0 -89 3 -159 6 -155 3 3 6 75 7 159 l0 153 6 -147 c3
-80 8 -149 11 -152 3 -3 128 -6 278 -7 155 -1 275 -5 278 -11 3 -5 0 -16 -8
-25 -7 -10 -8 -14 -1 -10 7 5 9 0 6 -13 -3 -11 -10 -20 -15 -20 -5 0 -6 5 -3
10 3 6 4 10 1 10 -3 0 -19 -20 -35 -44 -20 -28 -28 -51 -25 -67 3 -19 3 -20
-4 -6 -8 18 -9 18 -22 1 -11 -13 -11 -16 -2 -10 9 5 12 3 11 -5 -2 -8 3 -25
10 -39 12 -25 12 -25 -13 2 -22 25 -26 26 -38 11 -11 -14 -11 -15 2 -11 8 2
23 -5 32 -18 23 -29 23 -46 0 -18 -24 29 -52 26 -71 -8 -9 -15 -20 -28 -24
-28 -4 0 -3 -9 3 -20 13 -24 5 -41 -15 -34 -8 4 -12 10 -9 15 3 5 10 6 16 3 7
-4 8 -2 4 5 -6 9 -11 9 -22 0 -7 -6 -11 -15 -8 -20 3 -5 0 -9 -6 -9 -7 0 -9
-7 -6 -16 9 -25 -20 -65 -42 -57 -9 3 -14 3 -10 -1 3 -4 -6 -20 -21 -34 -15
-15 -18 -20 -7 -12 16 12 15 9 -4 -16 -14 -17 -29 -29 -34 -26 -5 3 -6 -2 -3
-12 4 -9 3 -15 -2 -12 -4 3 -16 -3 -26 -14 -10 -11 -13 -20 -7 -20 6 0 12 6
15 13 2 6 8 9 11 5 4 -3 -2 -16 -13 -27 -12 -12 -21 -16 -21 -10 0 5 -5 7 -10
4 -8 -5 -8 -11 0 -20 8 -10 8 -15 -1 -21 -8 -5 -9 -3 -4 6 5 8 3 11 -5 8 -8
-2 -18 -13 -24 -23 -6 -11 -16 -24 -22 -30 -26 -23 -94 -125 -94 -140 0 -9 -4
-14 -9 -11 -5 4 -10 -56 -10 -139 l-2 -145 531 0 531 0 -3 157 c-3 159 -13
197 -37 136 l-11 -28 5 28 5 27 -264 0 c-230 0 -265 -2 -270 -16 -3 -8 -11
-12 -17 -8 -8 4 -7 9 2 15 10 6 10 9 2 9 -6 0 -15 -4 -18 -10 -11 -17 -20 -11
-20 14 0 13 2 24 5 24 18 -1 21 4 11 16 -9 11 -9 16 0 22 8 4 9 3 5 -4 -9 -16
7 -15 22 0 15 15 16 42 2 33 -6 -4 -7 -12 -3 -18 3 -7 -3 -4 -14 6 -11 9 -23
14 -28 10 -4 -5 -5 -2 -1 5 6 10 11 10 22 1 11 -9 14 -9 14 0 0 8 8 10 20 6
14 -5 20 -2 20 9 0 9 4 16 9 16 12 0 111 141 111 158 0 7 4 11 8 8 4 -2 9 5 9
17 2 21 1 21 -17 -3 -11 -14 -20 -20 -19 -15 0 6 6 19 14 29 11 15 18 17 26 9
9 -9 20 -1 44 30 18 23 30 46 28 51 -3 4 -9 2 -14 -5 -4 -7 -11 -10 -16 -6
-10 10 18 28 34 22 7 -2 17 5 23 15 6 11 8 20 4 20 -3 0 0 7 7 17 8 9 13 18
11 20 -6 7 29 63 40 63 7 0 5 -7 -4 -17 -23 -27 -30 -43 -19 -43 5 0 20 17 32
38 13 20 27 39 31 40 4 2 8 8 8 12 0 5 11 21 25 36 13 14 22 30 19 35 -3 5 0
9 7 9 7 0 9 8 6 21 -5 17 -3 18 11 7 9 -7 13 -8 9 -2 -4 7 0 14 8 18 8 3 21
18 28 33 6 15 22 37 35 50 21 21 22 30 22 163 l0 140 -515 0 -515 0 0 -162z
m753 145 c-134 -2 -352 -2 -485 0 -134 1 -25 2 242 2 267 0 376 -1 243 -2z
m267 -57 c0 -52 -6 -43 -13 18 -3 30 -1 43 4 35 5 -8 9 -32 9 -53z m-23 -228
c-3 -8 -6 -5 -6 6 -1 11 2 17 5 13 3 -3 4 -12 1 -19z m-37 -57 c0 -6 -4 -12
-8 -15 -5 -3 -9 1 -9 9 0 8 4 15 9 15 4 0 8 -4 8 -9z m-390 -50 c7 -15 7 -19
-5 -17 -8 1 -18 6 -22 11 -5 4 -2 5 6 0 11 -6 13 -4 8 8 -9 23 0 21 13 -2z
m324 -30 c9 -14 -6 -22 -21 -10 -17 14 -17 -2 0 -21 6 -8 2 -6 -11 5 -17 14
-19 21 -10 27 17 10 36 10 42 -1z m-47 -63 c-3 -7 -5 -2 -5 12 0 14 2 19 5 13
2 -7 2 -19 0 -25z m-407 -68 c0 -5 -5 -10 -11 -10 -5 0 -7 5 -4 10 3 6 8 10
11 10 2 0 4 -4 4 -10z m25 -10 c3 -5 1 -10 -4 -10 -6 0 -11 5 -11 10 0 6 2 10
4 10 3 0 8 -4 11 -10z m-43 -32 c-7 -7 -12 -8 -12 -2 0 6 3 14 7 17 3 4 9 5
12 2 2 -3 -1 -11 -7 -17z m268 -117 c-15 -30 -30 -35 -17 -6 7 14 16 25 20 25
4 0 3 -9 -3 -19z m-70 -97 c0 -8 -19 -13 -24 -6 -3 5 1 9 9 9 8 0 15 -2 15 -3z
m-67 -34 c-5 -19 -23 -29 -23 -12 0 7 20 32 26 32 1 0 0 -9 -3 -20z m21 -25
c-14 -19 -29 -35 -31 -35 -5 0 7 18 36 53 26 31 23 18 -5 -18z m-41 -48 c3 -8
-1 -14 -8 -14 -7 0 -11 6 -8 14 3 7 6 13 8 13 2 0 5 -6 8 -13z m-353 -37 c0 7
3 11 6 7 12 -12 -7 -28 -20 -18 -7 6 -15 9 -18 6 -2 -3 -5 2 -5 10 0 13 3 13
19 -2 13 -12 18 -13 18 -3z m-81 -78 c6 -12 6 -23 0 -33 -9 -12 -10 -12 -6 1
2 8 0 23 -5 33 -5 9 -6 17 -4 17 3 0 10 -8 15 -18z m-26 -29 c-8 -24 -24 -43
-35 -43 -5 0 1 14 14 30 25 34 30 37 21 13z m924 -55 c-3 -8 -6 -5 -6 6 -1 11
2 17 5 13 3 -3 4 -12 1 -19z m53 -100 c0 -68 -4 -118 -8 -112 -7 12 -4 234 4
234 2 0 4 -55 4 -122z m-548 90 c-7 -7 -12 -8 -12 -2 0 6 3 14 7 17 3 4 9 5
12 2 2 -3 -1 -11 -7 -17z m-485 -165 c-2 -32 -3 -8 -3 52 0 61 1 87 3 58 2
-29 2 -78 0 -110z m1030 -95 c-3 -7 -5 -2 -5 12 0 14 2 19 5 13 2 -7 2 -19 0
-25z"/>
</g>
</svg>
